<svg width="385" height="79" viewBox="0 0 385 79" fill="none" xmlns="http://www.w3.org/2000/svg">
<g clip-path="url(#clip0_86_420)">
<path d="M86.5716 36.5948L86.0337 36.6408L85.8493 34.8011L85.588 32.992L85.2345 31.1983L84.8042 29.4353L84.297 27.7029L83.713 26.0165L83.0522 24.3608L82.3145 22.7357L81.5153 21.1566L80.6393 19.6235L78.6875 16.68L76.4898 13.9358L74.0615 11.3908L71.4027 9.07588L68.5442 7.00621L65.5012 5.18183L63.9182 4.3693L62.2891 3.63341L60.6293 2.97419L58.9388 2.39161L57.2021 1.8857L55.4347 1.45643L53.6366 1.10382L51.8231 0.827865L49.9788 0.643894L48.1192 0.551909H46.1521L44.2156 0.659225L42.3099 0.873857L40.4349 1.18047L38.5907 1.59441L36.7925 2.10033L35.0252 2.69823L33.3039 3.38812L31.6287 4.17L29.9996 5.04386L28.4166 5.99437L26.8798 7.02154L25.4044 8.12536L23.9751 9.30584L22.6073 10.5476L21.3009 11.8661L18.8727 14.6716L17.7508 16.1587L16.7057 17.7072L15.7375 19.3169L14.8307 20.9726L14.0008 22.6744L13.2478 24.4221L12.5716 26.2005L11.9875 28.0248L11.4804 29.8799L11.0654 31.7656L10.7427 33.6819L10.5122 35.6136L10.3738 37.576L10.3277 39.5537H9.78983L9.83593 37.5453L9.97425 35.5676L10.2202 33.6053L10.5583 31.6736L10.9732 29.7572L11.4804 27.8869L12.0798 26.0472L12.756 24.2381L13.509 22.4751L14.3543 20.758L15.2764 19.0869L16.26 17.4619L17.3205 15.8981L18.4577 14.3804L20.9167 11.5288L22.2384 10.195L23.6216 8.9379L25.0663 7.74209L26.5724 6.62294L28.1246 5.58044L29.7383 4.61459L31.3981 3.74073L33.1041 2.94353L34.8561 2.23831L36.6542 1.62507L38.4831 1.10382L40.3581 0.689887L42.2638 0.367938L44.2002 0.153306L46.1674 0.04599H48.1653L50.0557 0.153306L51.9307 0.337277L53.7749 0.613232L55.5884 0.965843L57.3712 1.41044L59.1232 1.93169L60.8445 2.52959L62.535 3.20415L64.1795 3.95536L65.7778 4.7679L68.8515 6.6076L71.7408 8.70793L74.4304 11.0536L76.9047 13.6291L79.1332 16.4194L81.1157 19.3936L82.0071 20.9573L82.8216 22.5517L83.5593 24.1921L84.2356 25.8785L84.8349 27.5956L85.3575 29.3433L85.7878 31.1217L86.1413 32.9307L86.4179 34.7704L86.6023 36.6408M31.6133 42.3439L32.1512 42.2979L32.3356 44.1529L32.5969 45.9773L32.9504 47.771L33.3807 49.5341L33.8879 51.2664L34.4719 52.9682L35.1327 54.6239L35.8704 56.249L36.685 57.8281L37.561 59.3765L39.5282 62.32L41.7412 65.0796L44.1849 67.6245L46.859 69.9394L49.7329 72.0091L51.2391 72.9443L52.7913 73.8182L54.3896 74.6307L56.0187 75.3666L57.6939 76.0258L59.3998 76.6084L61.1365 77.1143L62.9039 77.5436L64.702 77.8962L66.5309 78.1721L68.3751 78.3561L70.2501 78.4481H72.2019L74.123 78.3408L76.0133 78.1261L77.8729 77.8042L79.7018 77.3903L81.4999 76.869L83.252 76.2558L84.9579 75.5506L86.6331 74.7533L88.2621 73.8795L89.8451 72.9136L91.3666 71.8711L92.842 70.752L94.2559 69.5562L95.6237 68.299L96.9301 66.9806L99.3583 64.1444L100.465 62.642L101.51 61.0782L102.478 59.4685L103.385 57.8127L104.215 56.111L104.968 54.3633L105.644 52.5696L106.228 50.7452L106.735 48.8902L107.15 47.0045L107.473 45.0881L107.703 43.1564L107.842 41.1941L107.888 39.2164H108.426L108.38 41.2094L108.241 43.1871L107.995 45.1494L107.657 47.0811L107.242 48.9975L106.735 50.8832L106.136 52.7229L105.46 54.5319L104.707 56.3103L103.877 58.0427L102.955 59.7291L101.971 61.3695L100.911 62.9486L99.7886 64.4817L97.3297 67.3639L96.0079 68.713L94.6248 69.9854L93.1801 71.1966L91.6894 72.3311L90.1371 73.3889L88.5388 74.3547L86.8943 75.2439L85.2038 76.0411L83.4671 76.7617L81.6844 77.3903L79.8555 77.9115L77.9959 78.3408L76.1055 78.6627L74.1845 78.8773L72.2326 78.9847H70.2501L68.3444 78.8927L66.4694 78.7087L64.6252 78.4328L62.7963 78.0801L60.9982 77.6356L59.2308 77.1143L57.5095 76.5164L55.8189 75.8418L54.1591 75.0906L52.5454 74.2781L50.9778 73.3889L49.4563 72.4384L46.5516 70.3381L43.8468 67.9924L41.357 65.4168L39.1132 62.6266L37.1307 59.6371L36.2393 58.0734L35.4247 56.4636L34.6717 54.8232L33.9954 53.1368L33.3961 51.4198L32.8735 49.672L32.4432 47.8783L32.0897 46.0539L31.8285 44.1989L31.644 42.3285M32.1205 39.7683V39.2317H86.0644V39.7683H32.1205ZM0 39.9369V39.4003H9.94351V39.9369H0ZM108.318 39.431V38.8944H118.139V39.431H108.318Z" fill="#312D28"/>
<path d="M69.7122 0.260628C48.3498 0.260628 29.2312 18.1978 29.2312 39.4923H9.89746C9.89746 60.8023 27.2179 78.7394 48.565 78.7394C69.912 78.7394 88.8923 60.7256 88.8923 39.4157H108.38C108.38 18.1058 91.0593 0.260628 69.7122 0.260628ZM69.7122 3.44945C88.2161 3.44945 103.446 17.8911 105.045 36.2269H85.6956V39.4157C85.6956 58.6713 68.3444 75.5506 48.565 75.5506C30.0611 75.5506 14.8154 61.0782 13.2325 42.6965H32.4279V39.5077C32.4279 20.2981 49.8406 3.44945 69.7122 3.44945Z" fill="#FC4C04"/>
<path d="M161.817 20.6967H160.295C160.265 19.0103 160.096 17.6765 159.788 16.6647C159.481 15.6682 158.958 14.9169 158.221 14.4264C157.483 13.9358 156.438 13.6905 155.07 13.6905H151.658L151.612 35.5523C151.612 36.9627 151.566 38.0206 151.489 38.7258L154.824 38.5725V40.3355H145.372V39.0171C146.525 38.9711 147.263 38.6491 147.601 38.0512C147.939 37.4687 148.108 36.5488 148.108 35.3223V34.0805L148.154 13.7518L144.02 13.7978C142.36 13.7978 141.177 14.3497 140.455 15.4689C139.748 16.5727 139.394 18.3357 139.394 20.7427H137.903L138.149 12.28H161.586L161.832 20.7427L161.817 20.6967Z" fill="#312D28"/>
<path d="M180.029 13.5525C179.091 13.5832 178.415 13.7978 178.015 14.1964C177.616 14.595 177.385 15.0702 177.339 15.6222C177.293 16.1741 177.262 17.1246 177.262 18.489V35.537C177.262 36.9474 177.216 38.0052 177.139 38.7105L180.029 38.5571V40.3202H170.977V39.0017C171.914 38.9711 172.59 38.7565 172.99 38.3578C173.389 37.9592 173.62 37.484 173.666 36.9321C173.712 36.3802 173.743 35.4296 173.743 34.0652V16.7413C173.743 15.6222 173.789 14.6563 173.866 13.8591L170.977 14.0124V12.2494H180.029V13.5678V13.5525Z" fill="#312D28"/>
<path d="M217.175 13.5525C216.375 13.5832 215.776 13.7365 215.392 14.0124C215.008 14.2884 214.762 14.6716 214.654 15.1622C214.547 15.6375 214.501 16.2814 214.501 17.0939V18.5044L214.424 40.9641H212.503L195.059 17.5845H195.013L195.136 34.7398C195.136 36.5335 195.105 37.8519 195.059 38.7105L197.948 38.5572V40.3202H190.587V39.0018C191.663 39.0018 192.37 38.6951 192.723 38.0819C193.077 37.4687 193.246 36.7174 193.246 35.8436L193.292 13.8744L190.602 14.0278V12.2647H195.382L212.503 35.123H212.549L212.595 16.7566C212.595 15.6375 212.641 14.6716 212.718 13.8744L209.828 14.0278V12.2647H217.221V13.5832L217.175 13.5525Z" fill="#312D28"/>
<path d="M235.064 14.9783C233.558 16.1741 232.436 17.7072 231.667 19.6082C230.899 21.5092 230.515 23.4869 230.515 25.5412C230.515 27.5956 230.899 29.7726 231.683 31.9036C232.467 34.0345 233.635 35.7976 235.218 37.1927C236.8 38.6031 238.722 39.293 240.965 39.293C243.056 39.293 244.838 38.6951 246.329 37.5147C247.82 36.3188 248.942 34.8011 249.71 32.9154C250.479 31.045 250.863 29.0827 250.863 27.0283C250.863 24.7594 250.448 22.5517 249.618 20.4361C248.788 18.3051 247.574 16.5727 246.006 15.2236C244.423 13.8744 242.579 13.1999 240.458 13.1999C238.337 13.1999 236.57 13.7978 235.064 14.9783ZM248.435 13.7671C250.586 15.2236 252.2 17.0786 253.276 19.3169C254.351 21.5552 254.889 23.8702 254.889 26.2465C254.889 28.6227 254.351 30.907 253.306 33.1607C252.246 35.4143 250.663 37.2847 248.557 38.7411C246.452 40.1976 243.901 40.9334 240.904 40.9334C237.692 40.9334 235.002 40.2282 232.866 38.8024C230.715 37.392 229.147 35.5676 228.117 33.3293C227.103 31.091 226.596 28.7454 226.596 26.2465C226.596 23.7475 227.118 21.5552 228.179 19.3169C229.239 17.0786 230.822 15.2236 232.928 13.7671C235.033 12.3107 237.584 11.5748 240.581 11.5748C243.578 11.5748 246.283 12.3107 248.435 13.7671Z" fill="#312D28"/>
<path d="M276.881 12.0501C278.096 12.3567 279.217 12.8933 280.232 13.6292L280.078 11.9121H282.122V20.7273H280.677C280.539 18.6117 279.863 16.8333 278.649 15.3769C277.435 13.9204 275.729 13.1846 273.531 13.1846C271.917 13.1846 270.657 13.6292 269.75 14.5337C268.844 15.4229 268.383 16.542 268.383 17.8758C268.383 18.949 268.69 19.8688 269.305 20.6354C269.919 21.4172 270.672 22.0458 271.548 22.5671C272.44 23.073 273.685 23.7015 275.283 24.4527C277.112 25.2806 278.572 26.0318 279.678 26.6911C280.785 27.3656 281.738 28.2395 282.506 29.3126C283.29 30.4011 283.674 31.7196 283.674 33.2987C283.674 34.8777 283.305 36.1195 282.568 37.2694C281.83 38.4192 280.754 39.3084 279.325 39.9523C277.911 40.5962 276.221 40.9181 274.253 40.9181C272.993 40.9181 271.733 40.7495 270.457 40.3969C269.182 40.0443 268.06 39.5383 267.107 38.8791L267.307 40.5962H265.217L264.971 32.0569H266.538C266.677 34.3565 267.46 36.1195 268.905 37.3767C270.35 38.6185 272.194 39.247 274.407 39.247C276.036 39.247 277.419 38.8025 278.526 37.8979C279.632 37.0087 280.186 35.7823 280.186 34.2339C280.186 33.084 279.878 32.1029 279.248 31.2903C278.618 30.4778 277.834 29.7879 276.912 29.2513C275.99 28.6994 274.73 28.0708 273.147 27.3503C271.349 26.4918 269.919 25.7405 268.859 25.112C267.799 24.4681 266.892 23.6249 266.139 22.5671C265.386 21.5092 265.017 20.2061 265.017 18.6577C265.017 17.5845 265.263 16.5114 265.754 15.4535C266.246 14.3804 267.107 13.4758 268.321 12.7246C269.535 11.9734 271.149 11.6055 273.162 11.6055C274.361 11.6055 275.575 11.7588 276.805 12.0654" fill="#312D28"/>
<path d="M303.192 17.3239L301.502 21.8618L299.335 27.9635L298.659 29.9259H307.941L305.083 22.2604L303.269 17.3239H303.192ZM313.366 34.2798C313.658 35.0004 313.92 35.7823 314.135 36.6255C314.35 37.4687 314.442 38.1586 314.412 38.6951L317.147 38.5265V40.2895H307.941V38.9711C309.524 38.9404 310.308 38.2965 310.308 37.0394C310.308 36.5335 310.17 35.9049 309.909 35.1537L308.495 31.3823L298.044 31.6276C297.644 32.7161 297.168 34.1572 296.63 35.9202C296.369 36.8094 296.031 37.7293 295.631 38.6951L298.766 38.5265V40.2895H291.251V38.9711C291.927 38.9711 292.45 38.8178 292.865 38.5112C293.264 38.2045 293.602 37.8059 293.848 37.3154C294.11 36.8248 294.402 36.0736 294.755 35.0924L295.155 33.9732L303.438 11.4828H304.407L313.366 34.2952V34.2798Z" fill="#312D28"/>
<path d="M351.604 13.5525C350.805 13.5832 350.206 13.7365 349.821 14.0124C349.437 14.2884 349.191 14.6716 349.084 15.1622C348.976 15.6375 348.93 16.2814 348.93 17.0939V18.5044L348.853 40.9641H346.917L329.473 17.5845H329.427L329.55 34.7398C329.55 36.5335 329.519 37.8519 329.473 38.7105L332.363 38.5572V40.3202H325.001V39.0018C326.077 39.0018 326.784 38.6951 327.137 38.0819C327.491 37.4687 327.66 36.7174 327.66 35.8436L327.706 13.8744L325.016 14.0278V12.2647H329.796L346.917 35.123H346.963L347.009 16.7566C347.009 15.6375 347.055 14.6716 347.132 13.8744L344.243 14.0278V12.2647H351.635V13.5832L351.604 13.5525Z" fill="#312D28"/>
<path d="M371.045 17.3239L369.354 21.8618L367.187 27.9635L366.511 29.9259H375.794L372.935 22.2604L371.122 17.3239H371.045ZM381.219 34.2798C381.511 35.0004 381.772 35.7823 381.987 36.6255C382.203 37.4687 382.295 38.1586 382.264 38.6951L385 38.5265V40.2895H375.794V38.9711C377.377 38.9404 378.161 38.2965 378.161 37.0394C378.161 36.5335 378.022 35.9049 377.761 35.1537L376.347 31.3823L365.896 31.6276C365.497 32.7161 365.02 34.1572 364.483 35.9202C364.221 36.8094 363.883 37.7293 363.484 38.6951L366.619 38.5265V40.2895H359.104V38.9711C359.78 38.9711 360.302 38.8178 360.717 38.5112C361.117 38.2045 361.455 37.8059 361.701 37.3154C361.962 36.8248 362.254 36.0736 362.608 35.0924L363.007 33.9732L371.291 11.4828H372.259L381.219 34.2952V34.2798Z" fill="#312D28"/>
<path d="M137.903 56.1723H140.992L143.882 64.0371H143.928L146.786 56.1723H149.906V67.2566H147.939V58.3493H147.908L144.527 67.2566H143.144L139.824 58.3493H139.794V67.2566H137.903V56.1723Z" fill="#FC4C04"/>
<path d="M164.844 63.0252L163.138 58.518L161.402 63.0252H164.86H164.844ZM162.324 56.1723H164.03L168.809 67.2566H166.55L165.52 64.727H160.71L159.711 67.2566H157.498L162.324 56.1723Z" fill="#FC4C04"/>
<path d="M176.417 56.1723H178.4V60.9556H178.446L183.087 56.1723H185.761L180.567 61.2928L186.099 67.2566H183.318L178.446 61.6915H178.4V67.2566H176.417V56.1723Z" fill="#FC4C04"/>
<path d="M195.72 56.1723H193.737V67.2566H195.72V56.1723Z" fill="#FC4C04"/>
<path d="M204.648 56.1723H207.276L212.44 64.4663H212.471V56.1723H214.454V67.2566H211.933L206.662 58.6866H206.631V67.2566H204.648V56.1723Z" fill="#FC4C04"/>
<path d="M233.127 66.674C232.558 66.9499 231.943 67.1646 231.267 67.3025C230.591 67.4558 229.822 67.5325 228.931 67.5325C228.04 67.5325 227.21 67.3945 226.472 67.1032C225.734 66.8119 225.089 66.4133 224.551 65.8921C224.013 65.3708 223.598 64.7576 223.306 64.0371C223.014 63.3165 222.86 62.5346 222.86 61.6608C222.86 60.7869 223.014 59.9744 223.321 59.2538C223.629 58.5333 224.059 57.9354 224.597 57.4295C225.135 56.9235 225.765 56.5403 226.503 56.2643C227.24 55.9884 228.024 55.8504 228.885 55.8504C229.746 55.8504 230.591 55.973 231.328 56.2336C232.066 56.4943 232.666 56.8315 233.111 57.2455L231.743 58.7172C231.467 58.4106 231.067 58.1347 230.56 57.92C230.053 57.7054 229.5 57.5981 228.9 57.5981C228.301 57.5981 227.778 57.7054 227.302 57.9047C226.825 58.1193 226.426 58.3953 226.088 58.7632C225.75 59.1312 225.488 59.5604 225.304 60.051C225.12 60.5416 225.027 61.0782 225.027 61.6454C225.027 62.2127 225.12 62.7799 225.304 63.2858C225.488 63.7764 225.75 64.2057 226.088 64.5736C226.426 64.9416 226.841 65.2175 227.333 65.4322C227.824 65.6315 228.378 65.7388 228.992 65.7388C229.838 65.7388 230.575 65.6161 231.206 65.3555V62.5346H228.869V60.9096H233.127V66.6586V66.674Z" fill="#FC4C04"/>
<path d="M254.428 56.1723H252.445V67.2566H254.428V56.1723Z" fill="#FC4C04"/>
<path d="M263.357 56.1723H265.985L271.149 64.4663H271.18V56.1723H273.163V67.2566H270.642L265.371 58.6866H265.34V67.2566H263.357V56.1723Z" fill="#FC4C04"/>
<path d="M284.35 57.8894H280.938V56.1723H289.729V57.8894H286.333V67.2566H284.35V57.8894Z" fill="#FC4C04"/>
<path d="M297.521 56.1723H304.868V57.8894H299.489V60.7103H304.591V62.366H299.489V65.4935H305.16V67.2566H297.521V56.1723Z" fill="#FC4C04"/>
<path d="M317.178 60.9402C317.455 60.9402 317.747 60.9249 318.024 60.8789C318.3 60.8329 318.561 60.7563 318.777 60.649C319.007 60.5263 319.192 60.373 319.33 60.1584C319.484 59.9437 319.545 59.6678 319.545 59.3305C319.545 59.0239 319.468 58.7786 319.345 58.5793C319.207 58.38 319.038 58.2267 318.823 58.1194C318.608 58.012 318.377 57.9201 318.116 57.8894C317.855 57.8434 317.593 57.8281 317.332 57.8281H315.549V60.9402H317.163H317.178ZM313.582 56.1723H317.44C317.962 56.1723 318.469 56.2337 318.961 56.341C319.453 56.4483 319.883 56.6323 320.267 56.8776C320.652 57.1228 320.959 57.4601 321.19 57.8587C321.42 58.2727 321.528 58.7633 321.528 59.3458C321.528 60.143 321.297 60.8023 320.851 61.3082C320.39 61.8141 319.776 62.1514 318.992 62.3353L321.958 67.2566H319.576L317.009 62.5653H315.565V67.2566H313.582V56.1723Z" fill="#FC4C04"/>
<path d="M331.932 56.1723H329.949V67.2566H331.932V56.1723Z" fill="#FC4C04"/>
<path d="M342.49 61.6761C342.49 62.274 342.583 62.8106 342.767 63.3165C342.952 63.8071 343.213 64.2364 343.551 64.6043C343.889 64.9722 344.289 65.2482 344.765 65.4628C345.226 65.6621 345.749 65.7695 346.317 65.7695C346.886 65.7695 347.393 65.6621 347.87 65.4628C348.346 65.2635 348.746 64.9722 349.084 64.6043C349.422 64.2364 349.683 63.8071 349.867 63.3165C350.052 62.8259 350.144 62.274 350.144 61.6761C350.144 61.0782 350.052 60.5723 349.867 60.0817C349.683 59.5911 349.422 59.1618 349.084 58.7939C348.746 58.426 348.346 58.1347 347.87 57.9354C347.393 57.7207 346.871 57.6288 346.302 57.6288C345.733 57.6288 345.211 57.7361 344.734 57.9354C344.273 58.15 343.874 58.426 343.536 58.7939C343.197 59.1618 342.936 59.5911 342.752 60.0817C342.567 60.5723 342.475 61.1089 342.475 61.6761M340.339 61.6761C340.339 60.7869 340.493 59.9897 340.785 59.2692C341.077 58.5486 341.492 57.9507 342.029 57.4448C342.552 56.9389 343.182 56.5556 343.92 56.2796C344.642 56.0037 345.441 55.8657 346.302 55.8657C347.163 55.8657 347.977 56.0037 348.699 56.2796C349.437 56.5556 350.067 56.9389 350.605 57.4448C351.143 57.9507 351.558 58.5486 351.85 59.2692C352.142 59.9897 352.296 60.7869 352.296 61.6761C352.296 62.5653 352.142 63.3318 351.85 64.0524C351.558 64.7729 351.143 65.3862 350.605 65.8921C350.067 66.4134 349.437 66.812 348.699 67.1032C347.962 67.3945 347.163 67.5325 346.302 67.5325C345.441 67.5325 344.657 67.3945 343.92 67.1032C343.197 66.812 342.567 66.4134 342.029 65.8921C341.507 65.3709 341.092 64.7576 340.785 64.0524C340.493 63.3318 340.339 62.55 340.339 61.6761Z" fill="#FC4C04"/>
<path d="M364.298 60.9402C364.575 60.9402 364.867 60.9249 365.144 60.8789C365.42 60.8329 365.682 60.7563 365.897 60.649C366.127 60.5263 366.312 60.373 366.45 60.1584C366.604 59.9437 366.665 59.6678 366.665 59.3305C366.665 59.0239 366.588 58.7786 366.465 58.5793C366.327 58.38 366.158 58.2267 365.943 58.1194C365.728 57.9967 365.497 57.9201 365.236 57.8894C364.975 57.8434 364.713 57.8281 364.452 57.8281H362.669V60.9402H364.283H364.298ZM360.702 56.1723H364.56C365.082 56.1723 365.589 56.2337 366.081 56.341C366.573 56.4483 367.003 56.6323 367.388 56.8776C367.772 57.1228 368.079 57.4601 368.31 57.8587C368.54 58.2727 368.648 58.7633 368.648 59.3458C368.648 60.143 368.417 60.8023 367.972 61.3082C367.526 61.8141 366.896 62.1514 366.112 62.3353L369.078 67.2566H366.696L364.129 62.5653H362.685V67.2566H360.702V56.1723Z" fill="#FC4C04"/>
<path d="M382.725 58.4873C382.51 58.2113 382.218 57.9814 381.834 57.8127C381.45 57.6288 381.065 57.5368 380.681 57.5368C380.451 57.5368 380.22 57.5674 379.99 57.6288C379.759 57.6901 379.544 57.7821 379.36 57.8894C379.175 57.9967 379.021 58.1653 378.898 58.3646C378.776 58.5639 378.714 58.7939 378.714 59.0545C378.714 59.2998 378.76 59.5144 378.868 59.6984C378.975 59.8824 379.114 60.0204 379.298 60.1584C379.483 60.281 379.698 60.3883 379.959 60.4803C380.22 60.5723 380.512 60.6643 380.82 60.7563C381.173 60.8789 381.542 61.0015 381.926 61.1395C382.31 61.2928 382.664 61.4768 382.971 61.7221C383.294 61.9674 383.555 62.2587 383.755 62.6266C383.955 62.9946 384.062 63.4545 384.062 63.9911C384.062 64.589 383.955 65.1102 383.74 65.5548C383.524 65.9994 383.232 66.3674 382.864 66.6586C382.495 66.9499 382.064 67.1646 381.573 67.3179C381.081 67.4712 380.558 67.5325 380.02 67.5325C379.298 67.5325 378.591 67.3945 377.9 67.1339C377.208 66.8733 376.639 66.4747 376.209 65.9534L377.623 64.635C377.9 65.0029 378.253 65.3095 378.714 65.5242C379.175 65.7388 379.621 65.8461 380.051 65.8461C380.282 65.8461 380.512 65.8154 380.758 65.7541C381.004 65.6928 381.219 65.6008 381.404 65.4628C381.603 65.3249 381.757 65.1562 381.88 64.9569C382.003 64.7576 382.064 64.497 382.064 64.2057C382.064 63.9144 382.003 63.6691 381.865 63.4698C381.726 63.2705 381.542 63.1019 381.311 62.9639C381.081 62.8259 380.804 62.7033 380.497 62.596C380.189 62.4886 379.851 62.3813 379.513 62.274C379.175 62.1667 378.837 62.044 378.514 61.8907C378.176 61.7374 377.884 61.5535 377.608 61.3082C377.346 61.0629 377.116 60.7716 376.962 60.419C376.793 60.0664 376.716 59.6371 376.716 59.1159C376.716 58.5486 376.839 58.0733 377.07 57.6594C377.3 57.2455 377.608 56.9235 377.992 56.6476C378.376 56.387 378.806 56.1877 379.298 56.0497C379.79 55.9117 380.282 55.8504 380.789 55.8504C381.357 55.8504 381.926 55.9424 382.51 56.1417C383.094 56.341 383.601 56.6322 384.016 57.0309L382.725 58.4413V58.4873Z" fill="#FC4C04"/>
</g>
<defs>
<clipPath id="clip0_86_420">
<rect width="385" height="79" fill="white"/>
</clipPath>
</defs>
</svg>
